<svg height="512pt" viewBox="0 0 512 512" width="512pt" xmlns="http://www.w3.org/2000/svg"><path d="m331 286 30 30h90l30-30v-120h-150zm0 0" fill="#8d9ca8"/><path d="m406 47.960938-75 113.5v4.539062h150v-4.539062zm0 0" fill="#cd0000"/><path d="m421 75h-30v-75h60v30h-30zm0 0" fill="#cd0000"/><path d="m391 211h30v30h-30zm0 0" fill="#575f64"/><path d="m301 151h211v30h-211zm0 0" fill="#f03800"/><path d="m31 286 30 30h90l30-30v-120h-150zm0 0" fill="#9facba"/><path d="m106 47.960938-75 113.5v4.539062h150v-4.539062zm0 0" fill="#f03800"/><path d="m512 271v241h-61l-30-15h-30l-30 15h-30l-30-15h-90l-30 15h-30l-30-15h-30l-30 15h-61v-241h91v30h30v-30h90v30h90v-30h90v30h30v-30zm0 0" fill="#c5d3dd"/><path d="m512 271v241h-61l-30-15h-30l-30 15h-30l-30-15h-45v-196h45v-30h90v30h30v-30zm0 0" fill="#9facba"/><path d="m121 75h-30v-75h60v30h-30zm0 0" fill="#f03800"/><path d="m331 436v76h-150v-76c0-41.398438 33.601562-75 75-75s75 33.601562 75 75zm0 0" fill="#7c8388"/><path d="m406 391c-24.8125 0-45 20.1875-45 45v76h90v-76c0-24.8125-20.1875-45-45-45zm0 0" fill="#575f64"/><path d="m106 391c-24.8125 0-45 20.1875-45 45v76h90v-76c0-24.8125-20.1875-45-45-45zm0 0" fill="#7c8388"/><path d="m91 211h30v30h-30zm0 0" fill="#7c8388"/><path d="m331 436v76h-75v-151c41.398438 0 75 33.601562 75 75zm0 0" fill="#575f64"/><path d="m0 151h211v30h-211zm0 0" fill="#ff641a"/></svg>