<?xml version="1.0" encoding="iso-8859-1"?>
<!-- Generator: Adobe Illustrator 21.0.0, SVG Export Plug-In . SVG Version: 6.00 Build 0)  -->
<svg xmlns="http://www.w3.org/2000/svg" xmlns:xlink="http://www.w3.org/1999/xlink" version="1.1" id="Capa_1" x="0px" y="0px" viewBox="0 0 509.619 509.619" style="enable-background:new 0 0 509.619 509.619;" xml:space="preserve" width="512" height="512">
<g>
	<path style="fill:#AAAAAA;" d="M482.851,382.052l-120.578-68.183c-2.32-1.314-5.166-1.294-7.471,0.05   c-2.304,1.344-3.721,3.811-3.721,6.478v181.722c0,4.142,3.358,7.5,7.5,7.5h120.578c4.142,0,7.5-3.358,7.5-7.5V388.58   C486.659,385.876,485.204,383.382,482.851,382.052z"/>
	<path style="fill:#999999;" d="M385.581,327.049l-23.308-13.18c-2.32-1.314-5.166-1.294-7.471,0.05   c-2.304,1.344-3.721,3.811-3.721,6.478v181.722c0,4.142,3.358,7.5,7.5,7.5h27V327.049z"/>
	<path style="fill:#AAAAAA;" d="M154.817,313.919c-2.305-1.344-5.149-1.363-7.471-0.05L26.769,382.052   c-2.353,1.331-3.808,3.825-3.808,6.528v113.539c0,4.142,3.358,7.5,7.5,7.5h120.578c4.142,0,7.5-3.358,7.5-7.5V320.397   C158.538,317.73,157.121,315.263,154.817,313.919z"/>
	<path style="fill:#999999;" d="M154.817,313.919c-2.305-1.344-5.149-1.363-7.471-0.05l-23.308,13.18v182.57h27   c4.142,0,7.5-3.358,7.5-7.5V320.397C158.538,317.73,157.121,315.263,154.817,313.919z"/>
	<path style="fill:#464649;" d="M271.279,18.283h-8.97V7.5c0-4.142-3.358-7.5-7.5-7.5s-7.5,3.358-7.5,7.5v10.783h-8.97   c-4.142,0-7.5,3.358-7.5,7.5c0,4.142,3.358,7.5,7.5,7.5h8.97v21.404c0,4.142,3.358,7.5,7.5,7.5s7.5-3.358,7.5-7.5V33.283h8.97   c4.142,0,7.5-3.358,7.5-7.5C278.779,21.641,275.421,18.283,271.279,18.283z"/>
	<path style="fill:#FF3D43;" d="M343.108,156.033c0-1.668-0.545-3.322-1.625-4.676L260.67,50.011   c-1.423-1.785-3.582-2.824-5.864-2.824c-2.283,0-4.441,1.04-5.864,2.824l-80.806,101.346c-1.079,1.354-1.624,3.008-1.625,4.676   H343.108z"/>
	<path style="fill:#AAAAAA;" d="M166.5,156.033L166.5,156.033v122.511c0,2.698,1.449,5.188,3.795,6.521   c1.15,0.653,2.428,0.979,3.705,0.979c1.329,0,2.658-0.353,3.84-1.058l76.969-45.872l76.97,45.872   c2.317,1.381,5.199,1.412,7.545,0.078c2.346-1.333,3.795-3.823,3.795-6.521V156.033l0,0H166.5z"/>
	<path style="fill:#999999;" d="M308.619,271.183l23.161,13.803c2.317,1.381,5.199,1.412,7.545,0.078   c2.346-1.333,3.795-3.823,3.795-6.521V156.033l0,0h-34.5V271.183z"/>
	<path style="fill:#D72E2E;" d="M341.482,151.357L260.67,50.011c-1.423-1.785-3.582-2.824-5.864-2.824   c-2.283,0-4.441,1.04-5.864,2.824L236.51,65.602l72.108,90.43h34.489C343.107,154.365,342.562,152.711,341.482,151.357z"/>
	<path style="fill:#E0E0E0;" d="M362.421,285.786l-103.772-61.845c-2.366-1.41-5.313-1.41-7.68,0l-103.772,61.845   c-2.27,1.353-3.66,3.8-3.66,6.442v209.891c0,4.142,3.358,7.5,7.5,7.5h207.543c4.142,0,7.5-3.358,7.5-7.5V292.228   C366.081,289.586,364.69,287.139,362.421,285.786z"/>
	<path style="fill:#C4C4C4;" d="M362.421,285.786l-30.84-18.38v242.213h27c4.142,0,7.5-3.358,7.5-7.5V292.228   C366.081,289.586,364.69,287.139,362.421,285.786z"/>
	<path style="fill:#A58260;" d="M254.81,371.409c-27.474,0-49.825,22.351-49.825,49.825v80.886c0,4.142,3.358,7.5,7.5,7.5h84.649   c4.142,0,7.5-3.358,7.5-7.5v-80.886C304.634,393.76,282.283,371.409,254.81,371.409z"/>
	<path style="fill:#8C6B50;" d="M254.81,371.409c-6.048,0-11.847,1.086-17.215,3.068c19.015,7.023,32.609,25.331,32.609,46.756   v80.886c0,4.142-3.358,7.5-7.5,7.5h34.431c4.142,0,7.5-3.358,7.5-7.5v-80.886C304.634,393.76,282.283,371.409,254.81,371.409z"/>
	<path style="fill:#FFDF65;" d="M254.81,282.793c-17.867,0-32.403,14.536-32.403,32.403S236.942,347.6,254.81,347.6   s32.403-14.536,32.403-32.403S272.677,282.793,254.81,282.793z"/>
	<path style="fill:#FFCD2C;" d="M254.81,282.793c-4.759,0-9.276,1.039-13.351,2.89c11.224,5.098,19.052,16.405,19.052,29.513   s-7.829,24.415-19.052,29.513c4.074,1.85,8.592,2.89,13.351,2.89c17.867,0,32.403-14.536,32.403-32.403   S272.677,282.793,254.81,282.793z"/>
</g>















</svg>
