<?xml version="1.0" encoding="iso-8859-1"?>
<!-- Generator: Adobe Illustrator 22.1.0, SVG Export Plug-In . SVG Version: 6.00 Build 0)  -->
<svg xmlns="http://www.w3.org/2000/svg" xmlns:xlink="http://www.w3.org/1999/xlink" version="1.1" id="Layer_3" x="0px" y="0px" viewBox="0 0 64 64" style="enable-background:new 0 0 64 64;" xml:space="preserve" width="512" height="512">
<g>
	<circle style="fill:#BC842C;" cx="54" cy="10" r="3"/>
	<ellipse style="fill:#FBB03B;" cx="52.5" cy="10" rx="1.5" ry="2.584"/>
	<path style="fill:#54BCE8;" d="M38,10c1.657,0,3-1.343,3-3s-1.343-3-3-3c-0.781,0-1.487,0.306-2.021,0.796   C35.872,3.236,34.587,2,33,2s-2.872,1.236-2.979,2.796C29.487,4.306,28.781,4,28,4c-1.657,0-3,1.343-3,3s1.343,3,3,3H38z"/>
	<path style="fill:#54D8FD;" d="M38,7c-0.781,0-1.487,0.306-2.021,0.796C35.872,6.236,34.587,5,33,5s-2.872,1.236-2.979,2.796   C29.487,7.306,28.781,7,28,7c-1.108,0-2.064,0.607-2.584,1.5C25.936,9.393,26.892,10,28,10h10c1.108,0,2.064-0.607,2.584-1.5   C40.064,7.607,39.108,7,38,7z"/>
	<path style="fill:#54BCE8;" d="M15,10c1.657,0,3-1.343,3-3s-1.343-3-3-3c-0.781,0-1.487,0.306-2.021,0.796   C12.872,3.236,11.587,2,10,2S7.128,3.236,7.021,4.796C6.487,4.306,5.781,4,5,4C3.343,4,2,5.343,2,7s1.343,3,3,3H15z"/>
	<path style="fill:#54D8FD;" d="M15,7c-0.781,0-1.487,0.306-2.021,0.796C12.872,6.236,11.587,5,10,5S7.128,6.236,7.021,7.796   C6.487,7.306,5.781,7,5,7C3.892,7,2.936,7.607,2.416,8.5C2.936,9.393,3.892,10,5,10h10c1.108,0,2.064-0.607,2.584-1.5   C17.064,7.607,16.108,7,15,7z"/>
	<path style="fill:#DBE0E1;" d="M4,30V16c0-1.105,0.895-2,2-2h26v4h6v6h6l12,6"/>
	<path style="fill:#5F6366;" d="M42,30v-4c0-0.729-0.195-1.412-0.535-2l0,0H38l0-2c-2.209,0-4,1.791-4,4v4h7.875H42z"/>
	<rect x="4" y="50" style="fill:#A4A8A9;" width="56" height="12"/>
	<rect x="4" y="50" style="fill:#DBE0E1;" width="53" height="12"/>
	<rect x="4" y="34" style="fill:#A4A8A9;" width="56" height="12"/>
	<rect x="4" y="34" style="fill:#DBE0E1;" width="53" height="12"/>
	<path style="fill:#474A4D;" d="M10,46v-4c0-2.209,1.791-4,4-4h0c2.209,0,4,1.791,4,4v4"/>
	<path style="fill:#5F6366;" d="M12.5,38.297C11.035,38.891,10,40.322,10,42v4h5v-4C15,40.322,13.965,38.891,12.5,38.297z"/>
	<path style="fill:#474A4D;" d="M22,46v-4c0-2.209,1.791-4,4-4h0c2.209,0,4,1.791,4,4v4"/>
	<path style="fill:#5F6366;" d="M24.5,38.297C23.035,38.891,22,40.322,22,42v4h5v-4C27,40.322,25.965,38.891,24.5,38.297z"/>
	<path style="fill:#474A4D;" d="M34,46v-4c0-2.209,1.791-4,4-4h0c2.209,0,4,1.791,4,4v4"/>
	<path style="fill:#5F6366;" d="M36.5,38.297C35.035,38.891,34,40.322,34,42v4h5v-4C39,40.322,37.965,38.891,36.5,38.297z"/>
	<path style="fill:#474A4D;" d="M22,30v-4c0-2.209,1.791-4,4-4h0c2.209,0,4,1.791,4,4v4"/>
	<path style="fill:#5F6366;" d="M24.5,22.297C23.035,22.891,22,24.322,22,26v4h5v-4C27,24.322,25.965,22.891,24.5,22.297z"/>
	<path style="fill:#474A4D;" d="M10,30v-4c0-2.209,1.791-4,4-4h0c2.209,0,4,1.791,4,4v4"/>
	<path style="fill:#5F6366;" d="M12.5,22.297C11.035,22.891,10,24.322,10,26v4h5v-4C15,24.322,13.965,22.891,12.5,22.297z"/>
	<path style="fill:#474A4D;" d="M46,46v-4c0-2.209,1.791-4,4-4h0c2.209,0,4,1.791,4,4v4"/>
	<path style="fill:#5F6366;" d="M48.5,38.297C47.035,38.891,46,40.322,46,42v4h5v-4C51,40.322,49.965,38.891,48.5,38.297z"/>
	<path style="fill:#474A4D;" d="M46,62v-4c0-2.209,1.791-4,4-4h0c2.209,0,4,1.791,4,4v4"/>
	<path style="fill:#5F6366;" d="M48.5,54.297C47.035,54.891,46,56.322,46,58v4h5v-4C51,56.322,49.965,54.891,48.5,54.297z"/>
	<path style="fill:#474A4D;" d="M34,62v-4c0-2.209,1.791-4,4-4h0c2.209,0,4,1.791,4,4v4"/>
	<path style="fill:#5F6366;" d="M36.5,54.297C35.035,54.891,34,56.322,34,58v4h5v-4C39,56.322,37.965,54.891,36.5,54.297z"/>
	<path style="fill:#474A4D;" d="M22,62v-4c0-2.209,1.791-4,4-4h0c2.209,0,4,1.791,4,4v4"/>
	<path style="fill:#5F6366;" d="M24.5,54.297C23.035,54.891,22,56.322,22,58v4h5v-4C27,56.322,25.965,54.891,24.5,54.297z"/>
	<path style="fill:#474A4D;" d="M10,62v-4c0-2.209,1.791-4,4-4h0c2.209,0,4,1.791,4,4v4"/>
	<path style="fill:#5F6366;" d="M12.5,54.297C11.035,54.891,10,56.322,10,58v4h5v-4C15,56.322,13.965,54.891,12.5,54.297z"/>
	<rect x="2" y="46" style="fill:#5F6366;" width="60" height="4"/>
	<rect x="2" y="46" style="fill:#7E8488;" width="57" height="4"/>
	<rect x="2" y="30" style="fill:#5F6366;" width="60" height="4"/>
	<rect x="2" y="30" style="fill:#7E8488;" width="57" height="4"/>
	<g>
		<rect x="53" y="2" style="fill:#FBB03B;" width="2" height="2"/>
	</g>
	<g>
		<rect x="53" y="16" style="fill:#FBB03B;" width="2" height="2"/>
	</g>
	<g>
		<rect x="60" y="9" style="fill:#FBB03B;" width="2" height="2"/>
	</g>
	<g>
		<rect x="46" y="9" style="fill:#FBB03B;" width="2" height="2"/>
	</g>
	<g>
		
			<rect x="48" y="3.586" transform="matrix(0.7071 -0.7071 0.7071 0.7071 10.8162 36.1127)" style="fill:#FBB03B;" width="2" height="2.828"/>
	</g>
	<g>
		
			<rect x="58.586" y="4" transform="matrix(0.7071 -0.7071 0.7071 0.7071 14.0381 43.8909)" style="fill:#FBB03B;" width="2.828" height="2"/>
	</g>
	<g>
		
			<rect x="58" y="13.586" transform="matrix(0.7071 -0.7071 0.7071 0.7071 6.6741 46.1127)" style="fill:#FBB03B;" width="2" height="2.828"/>
	</g>
	<g>
		
			<rect x="47.586" y="14" transform="matrix(0.7071 -0.7071 0.7071 0.7071 3.7452 39.0416)" style="fill:#FBB03B;" width="2.828" height="2"/>
	</g>
</g>
</svg>
