<?xml version="1.0" encoding="iso-8859-1"?>
<!-- Generator: Adobe Illustrator 21.0.0, SVG Export Plug-In . SVG Version: 6.00 Build 0)  -->
<svg xmlns="http://www.w3.org/2000/svg" xmlns:xlink="http://www.w3.org/1999/xlink" version="1.1" id="Capa_1" x="0px" y="0px" viewBox="0 0 509.933 509.933" style="enable-background:new 0 0 509.933 509.933;" xml:space="preserve" width="512" height="512">
<g>
	<path style="fill:#008950;" d="M249.896,158.849c0.863-0.965,21.571-23.847,59.422-42.123   c34.872-16.838,91.491-32.708,163.175-12.695c5.482,1.531,9.6,5.738,11.014,11.256c1.416,5.522-0.171,11.196-4.243,15.178   l-15.176,14.841c-8.861,8.666-21.764,11.917-33.673,8.484l-23.113-6.659l-21.981,18.671c-4.373,3.714-9.482,6.216-14.875,7.41   c-5.696,1.26-11.709,1.065-17.506-0.699l-21.092-6.419l-11.926,11.385c-10.208,9.746-25.121,12.299-37.989,6.503l-29.527-13.296   c-2.18-0.982-3.761-2.943-4.257-5.282C247.654,163.066,248.303,160.631,249.896,158.849z"/>
	<path style="fill:#007C46;" d="M249.896,158.849c0.352-0.393,4-4.426,10.757-10.302l14.921,6.719   c12.867,5.795,27.78,3.243,37.989-6.503l11.926-11.385l21.092,6.419c5.796,1.764,11.81,1.96,17.506,0.699   c5.393-1.194,10.502-3.696,14.875-7.41l21.982-18.671l23.113,6.659c11.909,3.433,24.812,0.181,33.673-8.484l13.252-12.96   c0.506,0.138,1.005,0.26,1.512,0.401c5.482,1.531,9.6,5.738,11.014,11.256c1.416,5.522-0.171,11.196-4.243,15.178l-15.176,14.841   c-8.861,8.666-21.764,11.917-33.673,8.484l-23.113-6.659l-21.981,18.671c-4.373,3.714-9.482,6.216-14.875,7.41   c-5.696,1.26-11.709,1.065-17.506-0.699l-21.092-6.419l-11.926,11.385c-10.208,9.746-25.121,12.299-37.989,6.503l-29.527-13.296   c-2.18-0.982-3.761-2.943-4.257-5.282C247.654,163.066,248.303,160.631,249.896,158.849z"/>
	<path style="fill:#008950;" d="M306.402,178.792c-0.121-1.289-3.2-31.997-22.807-69.174   C265.53,75.364,229.393,28.979,159.828,2.523c-5.32-2.023-11.131-1.082-15.546,2.518c-4.418,3.603-6.51,9.111-5.597,14.732   l3.4,20.953c1.985,12.234,10.438,22.511,22.059,26.819l22.552,8.364l6.603,28.075c1.314,5.585,3.939,10.631,7.57,14.794   c3.835,4.396,8.79,7.809,14.502,9.83l20.784,7.357l2.837,16.242c2.428,13.904,12.913,24.811,26.708,27.787l31.653,6.832   c2.337,0.504,4.774-0.135,6.561-1.723C305.702,183.516,306.626,181.172,306.402,178.792z"/>
	<path style="fill:#007C46;" d="M306.402,178.792c-0.049-0.525-0.591-5.936-2.54-14.676l-15.996-3.452   c-13.795-2.976-24.28-13.884-26.708-27.787l-2.837-16.242l-20.784-7.357c-5.712-2.022-10.667-5.435-14.502-9.83   c-3.631-4.163-6.256-9.209-7.57-14.794l-6.603-28.075l-22.552-8.364c-11.621-4.308-20.074-14.585-22.059-26.819l-2.969-18.297   c-0.489-0.189-0.963-0.388-1.455-0.575c-5.32-2.023-11.131-1.082-15.546,2.518c-4.418,3.603-6.51,9.111-5.597,14.732l3.4,20.953   c1.985,12.234,10.438,22.511,22.059,26.819l22.552,8.364l6.603,28.075c1.314,5.585,3.939,10.631,7.57,14.794   c3.835,4.396,8.79,7.809,14.502,9.83l20.784,7.357l2.837,16.242c2.428,13.904,12.913,24.811,26.708,27.787l31.653,6.832   c2.337,0.504,4.774-0.135,6.561-1.723C305.702,183.516,306.626,181.172,306.402,178.792z"/>
	<path style="fill:#45BF7F;" d="M281.462,161.547c-1.051-0.756-26.217-18.619-67.124-28.278   c-37.688-8.899-96.398-12.152-162.061,22.887c-5.021,2.68-8.132,7.678-8.32,13.371c-0.189,5.697,2.587,10.895,7.424,13.901   l18.026,11.209c10.525,6.545,23.826,6.93,34.711,1.003l21.126-11.499l25.498,13.477c5.072,2.681,10.601,4.019,16.125,4.019   c5.834-0.001,11.663-1.492,16.941-4.468l19.205-10.828l14.105,8.537c12.074,7.309,27.186,6.576,38.496-1.864l25.954-19.365   c1.916-1.43,3.036-3.686,3.014-6.077C284.563,165.18,283.403,162.943,281.462,161.547z"/>
	<path style="fill:#6E563D;" d="M269.945,230.952c-5.981-6.126-8.304-14.729-6.213-23.014c1.014-4.017-1.421-8.094-5.437-9.107   c-4.02-1.012-8.093,1.421-9.107,5.438c-3.237,12.832-16.347,20.796-29.229,17.75c-3.527-0.838-7.145,0.975-8.597,4.294   c-22.906,52.393-43.849,105.43-48.457,178.01c-0.151,2.387,0.844,4.702,2.68,6.234c1.363,1.137,3.068,1.741,4.806,1.741   c0.603,0,1.21-0.072,1.807-0.221c18.26-4.534,37.228-7.556,56.379-8.98c3.821-0.284,6.813-3.403,6.939-7.232   c2.248-68.311,13.224-116.418,35.592-155.981C272.75,236.978,272.276,233.338,269.945,230.952z"/>
	<path style="fill:#604B35;" d="M269.945,230.952c-5.981-6.126-8.304-14.729-6.213-23.014c1.014-4.017-1.421-8.094-5.437-9.107   c-2.417-0.608-4.849,0.035-6.628,1.513c0.616,2.351,0.338,4.911-0.919,7.135c-28.444,50.311-42.447,111.456-45.38,198.152   c7.684-1.1,15.429-1.956,23.209-2.535c3.821-0.284,6.813-3.403,6.939-7.232c2.248-68.311,13.224-116.418,35.592-155.981   C272.75,236.978,272.276,233.338,269.945,230.952z"/>
	<path style="fill:#A58260;" d="M261.107,181.385c-0.966-2.027-2.79-3.516-4.969-4.055c-2.182-0.539-4.487-0.073-6.287,1.269   l-3.206,2.392c0,0.001-0.001,0.001-0.001,0.001c-6.392,4.771-14.933,5.184-21.759,1.054l-17.855-10.807   c-2.317-1.402-5.21-1.447-7.567-0.116l-3.366,1.897c-0.936,0.528-1.747,1.25-2.378,2.118c-2.971,4.079-5.105,8.633-6.341,13.533   c-2.573,10.197-1.021,20.786,4.37,29.816c5.391,9.03,13.976,15.421,24.173,17.994c3.216,0.812,6.47,1.212,9.702,1.212   c7.018,0,13.932-1.892,20.114-5.582c9.03-5.392,15.42-13.977,17.993-24.174C265.971,199.067,265.039,189.636,261.107,181.385z"/>
	<g>
		<path style="fill:#8C6B50;" d="M261.107,181.385c-0.966-2.027-2.79-3.516-4.969-4.055c-2.182-0.539-4.487-0.073-6.287,1.269    l-3.206,2.392c0,0.001-0.001,0.001-0.001,0.001c-2.009,1.499-4.23,2.567-6.543,3.2c0.093,3.567-0.289,7.153-1.172,10.653    c-2.573,10.197-8.963,18.782-17.993,24.174c-6.182,3.69-13.096,5.582-20.114,5.582c-1.611,0-3.226-0.1-4.84-0.3    c5.216,5.959,12.097,10.203,19.94,12.182c3.216,0.812,6.47,1.212,9.702,1.212c7.018,0,13.932-1.892,20.114-5.582    c9.03-5.392,15.42-13.977,17.993-24.174C265.971,199.067,265.039,189.636,261.107,181.385z"/>
	</g>
	<path style="fill:#A58260;" d="M324.165,219.889c-1.079-1.841-2.89-3.136-4.981-3.56l-13.469-2.731   c-7.818-1.585-13.82-7.676-15.291-15.517l-3.105-16.56c-0.379-2.019-1.569-3.795-3.294-4.912c-1.725-1.117-3.832-1.479-5.829-0.998   c-14.299,3.435-25.415,14.415-29.008,28.656c-5.312,21.051,7.493,42.498,28.543,47.81c3.206,0.809,6.426,1.196,9.602,1.196   c16.717,0,32.178-10.741,37.5-27.299C325.486,223.944,325.243,221.731,324.165,219.889z"/>
	<g>
		<path style="fill:#8C6B50;" d="M324.165,219.889c-1.079-1.841-2.89-3.136-4.981-3.56l-13.469-2.731    c-0.678-0.138-1.338-0.321-1.987-0.524c-6.691,13.344-20.461,21.711-35.212,21.711c-3.176,0-6.396-0.388-9.602-1.196    c-2.425-0.612-4.736-1.447-6.927-2.462c4.914,10.071,14.054,18.002,25.744,20.951c3.206,0.809,6.426,1.196,9.602,1.196    c16.717,0,32.178-10.741,37.5-27.299C325.486,223.944,325.243,221.731,324.165,219.889z"/>
	</g>
	<path style="fill:#00B76C;" d="M281.462,161.547c-0.428-0.308-4.862-3.457-12.73-7.732l-13.115,9.786   c-11.31,8.44-26.422,9.173-38.496,1.864l-14.105-8.537l-19.205,10.828c-5.278,2.976-11.107,4.467-16.941,4.468   c-5.524,0-11.053-1.338-16.125-4.019l-25.498-13.477l-21.126,11.499c-10.885,5.927-24.186,5.542-34.711-1.003l-15.741-9.788   c-0.464,0.244-0.925,0.471-1.39,0.719c-5.021,2.68-8.132,7.678-8.32,13.371c-0.189,5.697,2.587,10.895,7.424,13.901l18.026,11.209   c10.525,6.545,23.826,6.93,34.711,1.003l21.126-11.499l25.498,13.477c5.072,2.681,10.601,4.019,16.125,4.019   c5.834-0.001,11.663-1.492,16.941-4.468l19.205-10.828l14.105,8.537c12.074,7.309,27.186,6.576,38.496-1.864l25.954-19.365   c1.916-1.43,3.036-3.686,3.014-6.077C284.563,165.18,283.403,162.943,281.462,161.547z"/>
	<path style="fill:#45BF7F;" d="M450.214,311.497c-24.558-70.259-69.945-107.641-103.695-126.629   c-36.631-20.609-67.244-24.52-68.529-24.677c-2.374-0.283-4.742,0.57-6.377,2.316c-1.635,1.744-2.341,4.163-1.9,6.513l5.969,31.827   c2.602,13.871,13.221,24.648,27.052,27.452l16.159,3.276l6.79,20.976c3.633,11.223,12.61,19.721,24.016,22.732l27.886,7.362   l7.748,22.771c3.993,11.733,14.037,20.462,26.212,22.778l20.851,3.967c1.011,0.192,2.02,0.287,3.018,0.287   c4.527,0,8.813-1.942,11.862-5.48C450.993,322.655,452.092,316.87,450.214,311.497z"/>
	<path style="fill:#00B76C;" d="M449.905,310.647l-19.354-3.682c-12.175-2.316-22.219-11.045-26.212-22.778l-7.748-22.772   l-27.886-7.362c-11.406-3.012-20.383-11.51-24.016-22.732l-6.79-20.975l-16.159-3.276c-13.832-2.805-24.45-13.581-27.052-27.452   l-3.14-16.744c-8.063-1.979-13.055-2.619-13.557-2.68c-2.374-0.283-4.742,0.57-6.377,2.316c-1.635,1.744-2.341,4.163-1.9,6.513   l5.969,31.827c2.602,13.871,13.221,24.648,27.052,27.452l16.159,3.276l6.79,20.976c3.633,11.223,12.61,19.721,24.016,22.732   l27.886,7.362l7.748,22.771c3.993,11.733,14.037,20.462,26.212,22.778l20.851,3.967c1.011,0.192,2.02,0.287,3.018,0.287   c4.527,0,8.813-1.942,11.862-5.48c3.719-4.315,4.818-10.099,2.94-15.472C450.114,311.21,450.006,310.934,449.905,310.647z"/>
	<path style="fill:#A58260;" d="M508.286,496.268c-0.901-1.125-22.561-27.861-64.702-54.805   c-38.785-24.798-102.991-54.357-188.618-54.357s-149.833,29.56-188.618,54.357c-42.141,26.943-63.8,53.68-64.702,54.805   c-1.803,2.251-2.156,5.336-0.908,7.935c1.249,2.601,3.877,4.254,6.761,4.254h494.933c2.884,0,5.513-1.653,6.761-4.254   C510.442,501.604,510.089,498.519,508.286,496.268z"/>
	<path style="fill:#8C6B50;" d="M508.286,496.268c-0.901-1.125-22.561-27.861-64.702-54.805   c-38.785-24.798-102.991-54.357-188.618-54.357c-9.221,0-18.178,0.361-26.897,1.004c72.248,5.326,127.113,31.226,161.721,53.353   c42.141,26.943,63.8,53.68,64.702,54.805c1.803,2.251,2.156,5.336,0.908,7.935c-1.249,2.601-3.877,4.254-6.761,4.254h53.794   c2.884,0,5.513-1.653,6.761-4.254C510.442,501.604,510.089,498.519,508.286,496.268z"/>
</g>















</svg>
