<?xml version="1.0"?>
<svg xmlns="http://www.w3.org/2000/svg" viewBox="0 0 64 64" width="512" height="512"><g id="Museum"><rect x="31" y="2" width="2" height="4" style="fill:#898890"/><rect x="9" y="23" width="46" height="28" style="fill:#acabb1"/><polygon points="61 55 61 61 45 61 43.81 55.04 44 55 58 55 61 55" style="fill:#898890"/><polygon points="61 17 61 23 59 23 56.01 23 51 23 44 23 36 23 28 23 20 23 13 23 7.99 23 5 23 3 23 3 17 10.1 17 53.9 17 61 17" style="fill:#787680"/><polygon points="59 23 59 27 58 27 52 27 51 27 51 23 56.01 23 59 23" style="fill:#787680"/><polygon points="58 51 58 55 44 55 43.81 55.04 43 51 52 51 58 51" style="fill:#787680"/><rect x="52" y="27" width="6" height="24" style="fill:#898890"/><path d="M53.9,17H10.1a25.984,25.984,0,0,1,43.8,0Z" style="fill:#d1d3d4"/><polygon points="43.81 55.04 45 61 19 61 20.19 55.04 21 51 24 51 27 51 37 51 40 51 43 51 43.81 55.04" style="fill:#929196"/><polygon points="44 23 44 27 43 27 37 27 36 27 36 23 44 23" style="fill:#787680"/><polygon points="43 27 43 51 40 51 37 51 37 27 43 27" style="fill:#898890"/><polygon points="28 23 28 27 27 27 21 27 20 27 20 23 28 23" style="fill:#787680"/><polygon points="27 27 27 51 24 51 21 51 21 27 27 27" style="fill:#898890"/><polygon points="21 51 20.19 55.04 20 55 6 55 6 51 12 51 21 51" style="fill:#787680"/><polygon points="20.19 55.04 19 61 3 61 3 55 6 55 20 55 20.19 55.04" style="fill:#898890"/><polygon points="13 23 13 27 12 27 6 27 5 27 5 23 7.99 23 13 23" style="fill:#787680"/><rect x="6" y="27" width="6" height="24" style="fill:#898890"/><rect x="28" y="23" width="8" height="2" style="fill:#898890"/><rect x="44" y="23" width="7" height="2" style="fill:#898890"/><rect x="5" y="23" width="8" height="2" style="fill:#57565c"/><rect x="20" y="23" width="8" height="2" style="fill:#57565c"/><rect x="36" y="23" width="8" height="2" style="fill:#57565c"/><rect x="51" y="23" width="8" height="2" style="fill:#57565c"/><rect x="13" y="23" width="7" height="2" style="fill:#898890"/><rect x="6" y="27" width="6" height="2" style="fill:#6c6a73"/><rect x="21" y="27" width="6" height="2" style="fill:#6c6a73"/><rect x="37" y="27" width="6" height="2" style="fill:#6c6a73"/><rect x="52" y="27" width="6" height="2" style="fill:#6c6a73"/><rect x="24" y="53" width="16" height="2" style="fill:#787680"/><rect x="23" y="57" width="18" height="2" style="fill:#787680"/></g></svg>
