<?xml version="1.0" encoding="UTF-8"?>
<svg xmlns="http://www.w3.org/2000/svg" xmlns:xlink="http://www.w3.org/1999/xlink" width="512" height="512" viewBox="0 0 40 58" version="1.1"><!-- Generator: Sketch 51.3 (57544) - http://www.bohemiancoding.com/sketch --><title>008 - Pray</title><desc>Created with Sketch.</desc><defs/><g id="Page-1" stroke="none" stroke-width="1" fill="none" fill-rule="evenodd"><g id="008---Pray" fill-rule="nonzero"><path d="M13.9999991,22 L14,17.5 C13.9992151,16.4690171 14.5278858,15.5098574 15.4,14.96" id="Shape" fill="#FDD7AD"/><path d="M20,3.63 C19.9718043,3.4749547 19.9584107,3.3175802 19.96,3.16 C19.9584143,3.00573346 19.9718105,2.85167738 20,2.7 C19.8746491,1.77977081 19.3422466,0.964644138 18.55,0.48 C17.8113368,0.0204711914 16.9156234,-0.113417143 16.0748717,0.110025859 C15.2341201,0.33346886 14.5230612,0.894382265 14.11,1.66 L3.63,21.02 C2.57968998,22.9596847 2.19999483,25.1921515 2.55,27.37 L3.93,35.95 L5,42.56 L5,49 L20,49 L20,17.5 C19.9989869,16.4076969 19.4049069,15.4020974 18.4486923,14.8741006 C17.4924776,14.3461038 16.3249678,14.3789994 15.4,14.96 L19.81,4.33 C19.897707,4.10397563 19.9613908,3.86935091 20,3.63 Z M14,29 L11.59,27.23 C10.8807323,26.5269059 10.7995953,25.4080704 11.4,24.61 L14,22 L14,29 Z" id="Shape" fill="#FDD7AD"/><path d="M26.0000009,22 L26,17.5 C26.0007849,16.4690171 25.4721142,15.5098574 24.6,14.96" id="Shape" fill="#FDD7AD"/><path d="M36.37,21.02 L25.89,1.66 C25.4769388,0.894382265 24.7658799,0.33346886 23.9251283,0.110025859 C23.0843766,-0.113417143 22.1886632,0.0204711914 21.45,0.48 C20.6577534,0.964644138 20.1253509,1.77977081 20,2.7 C20.0281895,2.85167738 20.0415857,3.00573346 20.04,3.16 C20.0415893,3.3175802 20.0281957,3.4749547 20,3.63 C20.0386092,3.86935091 20.102293,4.10397563 20.19,4.33 L24.6,14.96 C23.6749556,14.3794942 22.5077091,14.346852 21.5516679,14.874753 C20.5956268,15.4026539 20.0014727,16.4078956 20,17.5 L20,49 L35,49 L35,42.56 L36.07,35.95 L37.45,27.37 C37.8000052,25.1921515 37.42031,22.9596847 36.37,21.02 Z M28.41,27.23 L26,29 L26,22 L28.6,24.61 C29.2004047,25.4080704 29.1192677,26.5269059 28.41,27.23 Z" id="Shape" fill="#E2C09F"/><path d="M10,50 C9.44771525,50 9,49.5522847 9,49 L9,45 C9,44.4477153 9.44771525,44 10,44 C10.5522847,44 11,44.4477153 11,45 L11,49 C11,49.5522847 10.5522847,50 10,50 Z" id="Shape" fill="#F09372"/><path d="M30,50 C29.4477153,50 29,49.5522847 29,49 L29,45 C29,44.4477153 29.4477153,44 30,44 C30.5522847,44 31,44.4477153 31,45 L31,49 C31,49.5522847 30.5522847,50 30,50 Z" id="Shape" fill="#D1B095"/><path d="M20,49 L20,56.1 C19.9431607,57.1637196 19.0652348,57.9977493 18,58 L2,58 C0.896775421,57.9967598 0.00324019568,57.1032246 1.77635684e-15,56 L1.77635684e-15,51 C0.00324019568,49.8967754 0.896775421,49.0032402 2,49 L20,49 Z" id="Shape" fill="#894B9D"/><path d="M40,51 L40,56 C39.9967598,57.1032246 39.1032246,57.9967598 38,58 L22,58 C20.9347652,57.9977493 20.0568393,57.1637196 20,56.1 L20,49 L38,49 C39.1032246,49.0032402 39.9967598,49.8967754 40,51 Z" id="Shape" fill="#3D324C"/><path d="M20,49 L20,54 C19.9967598,55.1032246 19.1032246,55.9967598 18,56 L2,56 C0.896775421,55.9967598 0.00324019568,55.1032246 1.77635684e-15,54 L1.77635684e-15,51 C0.00324019568,49.8967754 0.896775421,49.0032402 2,49 L20,49 Z" id="Shape" fill="#955BA5"/><path d="M40,51 L40,54 C39.9967598,55.1032246 39.1032246,55.9967598 38,56 L22,56 C20.8967754,55.9967598 20.0032402,55.1032246 20,54 L20,49 L38,49 C39.1032246,49.0032402 39.9967598,49.8967754 40,51 Z" id="Shape" fill="#894B9D"/><path d="M26,17.5 L26,35 C25.9967598,36.1032246 25.1032246,36.9967598 24,37 L20,37 L20,17.5 C20,15.8431458 21.3431458,14.5 23,14.5 C24.6568542,14.5 26,15.8431458 26,17.5 Z" id="Shape" fill="#EFCBAB"/><path d="M20,17.5 L20,37 L16,37 C14.8967754,36.9967598 14.0032402,36.1032246 14,35 L14,17.5 C14,15.8431458 15.3431458,14.5 17,14.5 C18.6568542,14.5 20,15.8431458 20,17.5 Z" id="Shape" fill="#FDDFBD"/><path d="M16,14 L18,14 C18.5522847,14 19,14.4477153 19,15 L19,18 C19,19.1045695 18.1045695,20 17,20 C15.8954305,20 15,19.1045695 15,18 L15,15 C15,14.4477153 15.4477153,14 16,14 Z" id="Shape" fill="#FEEFDE"/><path d="M22,14 L24,14 C24.5522847,14 25,14.4477153 25,15 L25,18 C25,19.1045695 24.1045695,20 23,20 C21.8954305,20 21,19.1045695 21,18 L21,15 C21,14.4477153 21.4477153,14 22,14 Z" id="Shape" fill="#FEEFDE"/></g></g></svg>
