<svg height="512pt" viewBox="0 0 512 512" width="512pt" xmlns="http://www.w3.org/2000/svg"><path d="m432 80.804688v-64.804688h16c4.417969 0 8-3.582031 8-8s-3.582031-8-8-8h-48c-4.417969 0-8 3.582031-8 8s3.582031 8 8 8h16v64.804688c-18.234375 3.71875-32 19.878906-32 39.195312v56c0 4.417969 3.582031 8 8 8h64c4.417969 0 8-3.582031 8-8v-56c0-19.316406-13.765625-35.480469-32-39.195312zm0 0" fill="#efedf0"/><path d="m432 88.804688v-80.804688h-16c-4.417969 0-8-3.582031-8-8h-8c-4.417969 0-8 3.582031-8 8s3.582031 8 8 8h16v64.804688c-18.234375 3.71875-32 19.878906-32 39.195312v56c0 4.417969 3.582031 8 8 8h8v-56c0-19.316406 13.765625-35.480469 32-39.195312zm0 0" fill="#d0cad3"/><path d="m320 80.804688v-64.804688h16c4.417969 0 8-3.582031 8-8s-3.582031-8-8-8h-48c-4.417969 0-8 3.582031-8 8s3.582031 8 8 8h16v64.804688c-18.234375 3.71875-32 19.878906-32 39.195312v56c0 4.417969 3.582031 8 8 8h64c4.417969 0 8-3.582031 8-8v-56c0-19.316406-13.765625-35.480469-32-39.195312zm0 0" fill="#efedf0"/><path d="m320 88.804688v-80.804688h-16c-4.417969 0-8-3.582031-8-8h-8c-4.417969 0-8 3.582031-8 8s3.582031 8 8 8h16v64.804688c-18.234375 3.71875-32 19.878906-32 39.195312v56c0 4.417969 3.582031 8 8 8h8v-56c0-19.316406 13.765625-35.480469 32-39.195312zm0 0" fill="#d0cad3"/><path d="m208 80.804688v-64.804688h16c4.417969 0 8-3.582031 8-8s-3.582031-8-8-8h-48c-4.417969 0-8 3.582031-8 8s3.582031 8 8 8h16v64.804688c-18.234375 3.71875-32 19.878906-32 39.195312v56c0 4.417969 3.582031 8 8 8h64c4.417969 0 8-3.582031 8-8v-56c0-19.316406-13.765625-35.480469-32-39.195312zm0 0" fill="#efedf0"/><path d="m208 88.804688v-80.804688h-16c-4.417969 0-8-3.582031-8-8h-8c-4.417969 0-8 3.582031-8 8s3.582031 8 8 8h16v64.804688c-18.234375 3.71875-32 19.878906-32 39.195312v56c0 4.417969 3.582031 8 8 8h8v-56c0-19.316406 13.765625-35.480469 32-39.195312zm0 0" fill="#d0cad3"/><path d="m96 80.804688v-64.804688h16c4.417969 0 8-3.582031 8-8s-3.582031-8-8-8h-48c-4.417969 0-8 3.582031-8 8s3.582031 8 8 8h16v64.804688c-18.234375 3.714843-32 19.878906-32 39.195312v56c0 4.417969 3.582031 8 8 8h64c4.417969 0 8-3.582031 8-8v-56c0-19.316406-13.765625-35.480469-32-39.195312zm0 0" fill="#efedf0"/><path d="m96 88.804688v-80.804688h-16c-4.417969 0-8-3.582031-8-8h-8c-4.417969 0-8 3.582031-8 8s3.582031 8 8 8h16v64.804688c-18.234375 3.714843-32 19.878906-32 39.195312v56c0 4.417969 3.582031 8 8 8h8v-56c0-19.316406 13.765625-35.480469 32-39.195312zm0 0" fill="#d0cad3"/><path d="m504 64h-496c-4.417969 0-8-3.582031-8-8v-16c0-4.417969 3.582031-8 8-8h496c4.417969 0 8 3.582031 8 8v16c0 4.417969-3.582031 8-8 8zm0 0" fill="#e98f6d"/><path d="m504 512h-496c-4.417969 0-8-3.582031-8-8v-16c0-4.417969 3.582031-8 8-8h496c4.417969 0 8 3.582031 8 8v16c0 4.417969-3.582031 8-8 8zm0 0" fill="#e98f6d"/><path d="m376 216h-16c-4.417969 0-8 3.582031-8 8v40c0 4.417969 3.582031 8 8 8h16c4.417969 0 8-3.582031 8-8v-40c0-4.417969-3.582031-8-8-8zm0 0" fill="#ffd982"/><path d="m403.199219 322.398438-19.199219-14.398438v-60c0-4.417969-3.582031-8-8-8h-16c-4.417969 0-8 3.582031-8 8v60l-19.199219 14.398438c-8.015625 6.011718-12.800781 15.582031-12.800781 25.601562v124c0 4.417969 3.582031 8 8 8h80c4.417969 0 8-3.582031 8-8v-124c0-10.019531-4.785156-19.589844-12.800781-25.601562zm0 0" fill="#d2df7c"/><path d="m344 472v-124c0-10.019531 4.785156-19.589844 12.800781-25.601562l19.199219-14.398438v-60c0-2.960938 1.609375-5.535156 4-6.921875-1.179688-.679687-2.539062-1.078125-4-1.078125h-16c-4.417969 0-8 3.582031-8 8v60l-19.199219 14.398438c-8.015625 6.011718-12.800781 15.582031-12.800781 25.601562v124c0 4.417969 3.582031 8 8 8h24c-4.417969 0-8-3.582031-8-8zm0 0" fill="#b3c924"/><path d="m320 352h96v96h-96zm0 0" fill="#e0dce2"/><path d="m320 352h24v96h-24zm0 0" fill="#c1b8c4"/><path d="m384 256h-32c-4.417969 0-8-3.582031-8-8s3.582031-8 8-8h32c4.417969 0 8 3.582031 8 8s-3.582031 8-8 8zm0 0" fill="#c2d450"/><path d="m264 216h-16c-4.417969 0-8 3.582031-8 8v40c0 4.417969 3.582031 8 8 8h16c4.417969 0 8-3.582031 8-8v-40c0-4.417969-3.582031-8-8-8zm0 0" fill="#ffd982"/><path d="m291.199219 322.398438-19.199219-14.398438v-60c0-4.417969-3.582031-8-8-8h-16c-4.417969 0-8 3.582031-8 8v60l-19.199219 14.398438c-8.015625 6.011718-12.800781 15.582031-12.800781 25.601562v124c0 4.417969 3.582031 8 8 8h80c4.417969 0 8-3.582031 8-8v-124c0-10.019531-4.785156-19.589844-12.800781-25.601562zm0 0" fill="#f4b7d3"/><path d="m232 472v-124c0-10.019531 4.785156-19.589844 12.800781-25.601562l19.199219-14.398438v-60c0-2.960938 1.609375-5.535156 4-6.921875-1.179688-.679687-2.539062-1.078125-4-1.078125h-16c-4.417969 0-8 3.582031-8 8v60l-19.199219 14.398438c-8.015625 6.011718-12.800781 15.582031-12.800781 25.601562v124c0 4.417969 3.582031 8 8 8h24c-4.417969 0-8-3.582031-8-8zm0 0" fill="#ee93bd"/><path d="m208 352h96v96h-96zm0 0" fill="#ffd982"/><path d="m208 352h24v96h-24zm0 0" fill="#ffc02e"/><path d="m272 256h-32c-4.417969 0-8-3.582031-8-8s3.582031-8 8-8h32c4.417969 0 8 3.582031 8 8s-3.582031 8-8 8zm0 0" fill="#e96fa7"/><path d="m152 216h-16c-4.417969 0-8 3.582031-8 8v40c0 4.417969 3.582031 8 8 8h16c4.417969 0 8-3.582031 8-8v-40c0-4.417969-3.582031-8-8-8zm0 0" fill="#ffd982"/><path d="m179.199219 322.398438-19.199219-14.398438v-60c0-4.417969-3.582031-8-8-8h-16c-4.417969 0-8 3.582031-8 8v60l-19.199219 14.398438c-8.015625 6.011718-12.800781 15.582031-12.800781 25.601562v124c0 4.417969 3.582031 8 8 8h80c4.417969 0 8-3.582031 8-8v-124c0-10.019531-4.785156-19.589844-12.800781-25.601562zm0 0" fill="#b1a7dc"/><path d="m120 472v-124c0-10.019531 4.785156-19.589844 12.800781-25.601562l19.199219-14.398438v-60c0-2.960938 1.609375-5.535156 4-6.921875-1.179688-.679687-2.539062-1.078125-4-1.078125h-16c-4.417969 0-8 3.582031-8 8v60l-19.199219 14.398438c-8.015625 6.011718-12.800781 15.582031-12.800781 25.601562v124c0 4.417969 3.582031 8 8 8h24c-4.417969 0-8-3.582031-8-8zm0 0" fill="#9689d0"/><path d="m96 352h96v96h-96zm0 0" fill="#e0dce2"/><path d="m96 352h24v96h-24zm0 0" fill="#c1b8c4"/><path d="m160 256h-32c-4.417969 0-8-3.582031-8-8s3.582031-8 8-8h32c4.417969 0 8 3.582031 8 8s-3.582031 8-8 8zm0 0" fill="#7c6cc4"/></svg>