<?xml version="1.0" encoding="iso-8859-1"?>
<!-- Generator: Adobe Illustrator 22.0.0, SVG Export Plug-In . SVG Version: 6.00 Build 0)  -->
<svg xmlns="http://www.w3.org/2000/svg" xmlns:xlink="http://www.w3.org/1999/xlink" version="1.1" x="0px" y="0px" viewBox="0 0 60 59" style="enable-background:new 0 0 60 59;" xml:space="preserve" width="512" height="512">
<g id="_x31_0-Monument">
	<rect x="6" y="40" style="fill:#DD352E;" width="5" height="5"/>
	<rect x="11" y="42" style="fill:#B02721;" width="5" height="5"/>
	<rect x="49" y="40" style="fill:#366DB6;" width="5" height="5"/>
	<rect x="54" y="42" style="fill:#1F436D;" width="5" height="5"/>
	<polygon style="fill:#E7ECED;" points="35.4,8.724 30,1 24.6,8.724 21,57 30,57 39,57  "/>
	<path style="fill:#AFB6BB;" d="M14,18c-0.382,0-0.744,0.078-1.08,0.208C12.553,16.379,10.938,15,9,15s-3.553,1.379-3.92,3.208   C4.744,18.078,4.382,18,4,18c-1.657,0-3,1.343-3,3s1.343,3,3,3h10c1.657,0,3-1.343,3-3S15.657,18,14,18z"/>
	<path style="fill:#AFB6BB;" d="M56,3c-0.382,0-0.744,0.078-1.08,0.208C54.553,1.379,52.938,0,51,0s-3.553,1.379-3.92,3.208   C46.744,3.078,46.382,3,46,3c-1.657,0-3,1.343-3,3s1.343,3,3,3h10c1.657,0,3-1.343,3-3S57.657,3,56,3z"/>
	<path style="fill:#28384C;" d="M45,23c-0.552,0-1-0.448-1-1c0-1.103-0.897-2-2-2c-0.552,0-1-0.448-1-1s0.448-1,1-1   c1.064,0,2.033,0.418,2.75,1.098C45.774,17.252,47.744,16,50,16c0.552,0,1,0.448,1,1s-0.448,1-1,1c-2.206,0-4,1.794-4,4   C46,22.552,45.552,23,45,23z"/>
	<polygon style="fill:#E7ECED;" points="30,58 20,58 24,8 30,8  "/>
	<polygon style="fill:#D5DADB;" points="30,58 40,58 36,8 30,8  "/>
	<polygon style="fill:#D5DADB;" points="30,8 24,8 30,0  "/>
	<polygon style="fill:#E7ECED;" points="30,8 36,8 30,0  "/>
	<path style="fill:#E7ECED;" d="M6,59c-0.552,0-1-0.448-1-1V40c0-0.552,0.448-1,1-1s1,0.448,1,1v18C7,58.552,6.552,59,6,59z"/>
	<path style="fill:#E7ECED;" d="M49,59c-0.552,0-1-0.448-1-1V40c0-0.552,0.448-1,1-1s1,0.448,1,1v18C50,58.552,49.552,59,49,59z"/>
	<path style="fill:#6C4127;" d="M1,59c-0.552,0-1-0.448-1-1v-6c0-0.552,0.448-1,1-1s1,0.448,1,1v6C2,58.552,1.552,59,1,59z"/>
	<path style="fill:#6C4127;" d="M16,59c-0.552,0-1-0.448-1-1v-6c0-0.552,0.448-1,1-1s1,0.448,1,1v6C17,58.552,16.552,59,16,59z"/>
	<path style="fill:#6C4127;" d="M11,59c-0.552,0-1-0.448-1-1v-6c0-0.552,0.448-1,1-1s1,0.448,1,1v6C12,58.552,11.552,59,11,59z"/>
	<path style="fill:#6C4127;" d="M20,55H1c-0.552,0-1-0.448-1-1s0.448-1,1-1h19c0.552,0,1,0.448,1,1S20.552,55,20,55z"/>
	<path style="fill:#6C4127;" d="M59,59c-0.552,0-1-0.448-1-1v-6c0-0.552,0.448-1,1-1s1,0.448,1,1v6C60,58.552,59.552,59,59,59z"/>
	<path style="fill:#6C4127;" d="M44,59c-0.552,0-1-0.448-1-1v-6c0-0.552,0.448-1,1-1s1,0.448,1,1v6C45,58.552,44.552,59,44,59z"/>
	<path style="fill:#6C4127;" d="M54,59c-0.552,0-1-0.448-1-1v-6c0-0.552,0.448-1,1-1s1,0.448,1,1v6C55,58.552,54.552,59,54,59z"/>
	<path style="fill:#6C4127;" d="M59,55H40c-0.552,0-1-0.448-1-1s0.448-1,1-1h19c0.552,0,1,0.448,1,1S59.552,55,59,55z"/>
</g>

</svg>
