<svg height="512pt" viewBox="-23 0 512 512.00128" width="512pt" xmlns="http://www.w3.org/2000/svg"><path d="m110.609375 231.195312c-12.28125-15.28125-18.335937-34.644531-16.949219-54.199218.414063-6.203125 4.058594-11.730469 9.597656-14.554688 5.539063-2.824218 12.152344-2.527344 17.414063.78125l38.578125 24.011719-.351562 51.113281zm0 0" fill="#2c3e50"/><path d="m143.800781 221.484375c.867188-3.703125 1.957031-7.355469 3.265625-10.925781 3.679688-9.980469 8.886719-19.328125 15.433594-27.710938 5.625-6.710937 11.664062-13.070312 18.078125-19.03125 6.101563-5.46875 10.617187-12.484375 13.0625-20.304687 4.699219-18.953125-5.59375-37.277344-18.640625-50.316407-19.421875-19.421874-17.328125-34.535156-13.746094-42.488281 1.507813-3.550781 5.183594-5.675781 9.011719-5.21875 18.761719 1.492188 37.449219-3.675781 52.78125-14.589843 6.789063-4.175782 14.988281-5.40625 22.703125-3.410157 7.71875 2 14.285156 7.054688 18.195312 14.003907 19.011719 33.636718 22.101563 73.984374 8.429688 110.121093-29.210938 87.617188 87.640625 77.90625 87.640625 77.90625h-21.390625 66.472656c.636719 4.382813.960938 8.808594.972656 13.242188 0 60.910156-59.320312 110.34375-132.414062 110.34375-53.054688 0-98.871094-26.042969-119.96875-63.648438zm0 0" fill="#556080"/><path d="m405.097656 229.519531c-18.570312-.335937-33.824218-14.777343-35.171875-33.304687-1.351562-18.523438 11.644531-35.023438 29.972657-38.050782 1.296874-.207031 2.617187.160157 3.617187 1.007813 1 .851563 1.578125 2.09375 1.582031 3.40625zm0 0" fill="#2c3e50"/><path d="m452.484375 182.132812c.851563-.890624 2.042969-1.375 3.273437-1.335937 1.234376.039063 2.386719.601563 3.179688 1.546875 11.515625 14.996094 9.410156 36.359375-4.808594 48.820312-14.222656 12.460938-35.675781 11.742188-49.03125-1.644531zm0 0" fill="#2c3e50"/><path d="m153.855469 218.589844-78.820313 22.933594c-5.957031 1.71875-10.578125 6.441406-12.167968 12.433593-1.589844 5.992188.078124 12.382813 4.398437 16.832031 18.246094 18.34375 52.789063 37.296876 108.085937 9.839844 7.5625-3.855468 11.3125-12.542968 8.925782-20.691406l-8.539063-29.324219c-1.304687-4.496093-4.34375-8.289062-8.449219-10.542969-4.105468-2.257812-8.9375-2.789062-13.433593-1.480468zm0 0" fill="#556080"/><path d="m335.449219 273.65625c-12.523438.089844-25.015625-1.207031-37.253907-3.867188-4.753906-1.070312-7.742187-5.796874-6.667968-10.550781 1.074218-4.757812 5.796875-7.742187 10.554687-6.671875 10.960938 2.371094 22.152344 3.523438 33.367188 3.433594 4.875 0 8.828125 3.953125 8.828125 8.828125s-3.953125 8.828125-8.828125 8.828125zm0 0" fill="#8697cb"/><path d="m265.816406 256c-1.699218 0-3.367187-.496094-4.792968-1.421875-21.113282-13.261719-35.714844-34.757813-40.261719-59.273437-.617188-4.839844 2.804687-9.257813 7.640625-9.875 4.835937-.617188 9.253906 2.804687 9.871094 7.640624 3.863281 19.367188 15.574218 36.273438 32.34375 46.695313 3.28125 2.128906 4.773437 6.164063 3.664062 9.914063-1.109375 3.746093-4.554688 6.320312-8.464844 6.320312zm0 0" fill="#8697cb"/><path d="m106.425781 53.214844c0 29.386718-23.824219 53.210937-53.210937 53.210937-29.390625 0-53.214844-23.824219-53.214844-53.210937 0-29.390625 23.824219-53.214844 53.214844-53.214844 29.386718 0 53.210937 23.824219 53.210937 53.214844zm0 0" fill="#ff5364"/><path d="m97.105469 388.414062h317.792969v88.277344h-317.792969zm0 0" fill="#90bae1"/><path d="m123.585938 388.414062h264.828124v88.277344h-264.828124zm0 0" fill="#b0d3f0"/><g fill="#802d40"><path d="m105.933594 494.347656c-3.003906-.003906-5.796875-1.527344-7.421875-4.050781s-1.855469-5.699219-.613281-8.433594l44.136718-97.101562c1.363282-2.984375 4.261719-4.964844 7.535156-5.152344 3.269532-.183594 6.375 1.457031 8.066407 4.269531l52.964843 88.273438c1.691407 2.707031 1.792969 6.117187.261719 8.917968-1.53125 2.800782-4.453125 4.554688-7.644531 4.59375-3.191406.035157-6.15625-1.652343-7.75-4.417968l-44.3125-73.871094-37.191406 81.796875c-1.433594 3.152344-4.574219 5.171875-8.03125 5.175781zm0 0"/><path d="m308.964844 485.519531c-3.101563 0-5.976563-1.625-7.574219-4.28125l-45.390625-75.664062-45.398438 75.664062c-2.554687 4.078125-7.90625 5.363281-12.03125 2.882813-4.125-2.480469-5.503906-7.808594-3.101562-11.976563l52.964844-88.277343c1.710937-2.492188 4.542968-3.984376 7.566406-3.984376 3.027344 0 5.855469 1.492188 7.566406 3.984376l52.964844 88.277343c1.636719 2.726563 1.683594 6.125.117188 8.894531-1.566407 2.765626-4.5 4.480469-7.683594 4.480469zm0 0"/><path d="m406.070312 494.347656c-3.460937-.003906-6.601562-2.023437-8.035156-5.175781l-37.1875-81.804687-44.316406 73.871093c-2.554688 4.078125-7.90625 5.363281-12.03125 2.882813-4.125-2.480469-5.503906-7.808594-3.097656-11.976563l52.964844-88.277343c1.667968-2.828126 4.785156-4.484376 8.066406-4.28125 3.277344.191406 6.175781 2.179687 7.53125 5.164062l44.136718 97.105469c1.246094 2.734375 1.019532 5.910156-.605468 8.4375-1.625 2.527343-4.421875 4.054687-7.425782 4.054687zm0 0"/></g><path d="m97.105469 353.105469h317.792969c9.75 0 17.652343 7.902343 17.652343 17.65625 0 9.75-7.902343 17.652343-17.652343 17.652343h-317.792969c-9.753907 0-17.65625-7.902343-17.65625-17.652343 0-9.753907 7.902343-17.65625 17.65625-17.65625zm0 0" fill="#c03a2b"/><path d="m418.269531 512h-324.539062c-3.058594 0-5.894531-1.585938-7.503907-4.1875-1.605468-2.601562-1.753906-5.847656-.386718-8.585938l11.265625-22.535156h317.792969l11.261718 22.535156c1.367188 2.738282 1.222656 5.984376-.386718 8.585938-1.605469 2.601562-4.445313 4.1875-7.503907 4.1875zm0 0" fill="#c03a2b"/><path d="m101.339844 30.632812c-6.789063-3.09375-14.164063-4.691406-21.625-4.679687-29.398438 0-53.230469 23.832031-53.230469 53.230469-.011719 7.824218 1.738281 15.546875 5.117187 22.601562-21.574218-9.582031-34.253906-32.234375-31.132812-55.636718 3.121094-23.398438 21.292969-41.9375 44.625-45.527344s46.238281 8.632812 56.246094 30.011718zm0 0" fill="#fb7b76"/></svg>